# xmcd
# 
# Track frame offsets:
#     150
#     11750
#     22690
#     32753
#     45693
#     57478
#     69830
#     81708
#     92163
#     105663
#     118493
#     139658
#     152785
#     168810
#     180765
#     192600
#     205388
#     215915
#     229145
#     241328
#     254420
#     265968
#     278325
#     292315
#     305385
#     322475
# 
# Disc length: 4441
# 
# Revision: 10
# Processed by: cddbd v1.5.2PL0 Copyright (c) Steve Scherf et al.
# Submitted via: fre:ac v1.0.31
# 
DISCID=8911571a
DTITLE=Country - Columbia Country Classics, Vol. 4: The Nashville Sound
DYEAR=1990
DGENRE=Country
TTITLE0=I Still Miss Someone
TTITLE1=Singing The Blues
TTITLE2=Charlie's Shoes
TTITLE3=Devil Woman
TTITLE4=Ring Of Fire
TTITLE5=Jackson
TTITLE6=A Wound Time Can't Erase
TTITLE7=I Can't Seem To Say Goodbye
TTITLE8=I Think I Know
TTITLE9=Funny How Time Slips Away
TTITLE10=Night Life
TTITLE11=Almost Persuaded
TTITLE12=My Elusive Dreams
TTITLE13=Stand By Your Man
TTITLE14=Bring Him Safely Home To Me
TTITLE15=I Take It On Home
TTITLE16=Take Me
TTITLE17=Behind Closed Doors
TTITLE18=The Most Beautiful Girl
TTITLE19=She's All I Got
TTITLE20=A Picture Of Me (Without You)
TTITLE21=The Midnight Oil
TTITLE22=The Grand Tour
TTITLE23=I Never Promised You A Rose Garden
TTITLE24=For The Good Times
TTITLE25=Would You Lay With Me (In A Field Of Stone)
EXTD=
EXTT0=
EXTT1=
EXTT2=
EXTT3=
EXTT4=
EXTT5=
EXTT6=
EXTT7=
EXTT8=
EXTT9=
EXTT10=
EXTT11=
EXTT12=
EXTT13=
EXTT14=
EXTT15=
EXTT16=
EXTT17=
EXTT18=
EXTT19=
EXTT20=
EXTT21=
EXTT22=
EXTT23=
EXTT24=
EXTT25=
PLAYORDER=
